<svg id="wave" xmlns="http://www.w3.org/2000/svg" viewBox="0 0 746.7 338.23"><path d="M170.27,603.18l-2.43,7.37,7.63,10.69,37.36,26.44L289.1,691.4,414,752.64l92.62,38.7,73.31,27.88,85.14,28.06,102.1,28.46,83.53,12.66L909,889.77l5.57-3.37-1.6-8.7-23.68-7.06-81.13-29-98.78-36.28-23.75-27.15,19.88-60.34-1.83-12.49L711,690l4.21-8.27,4.68-2.92,8.94,2.2,2.69,3.12,3.13,1.77,6.44-8.28,8.26-.25,21.85-7.66L782,645.77l-5.68-30.12-21.24-10-34.59,3.46L704.2,597.81l-69.06-25-44.27-21.28-36.81,5.71-22.7,21.5-5.28,22.79L470.77,616l-22.12-7.29-30.8,1L411.79,601l-9.39-3.1-4.89,5.82-4.23,3.81-11.39-3.75-12,5-.83,18.3-3.77,9.17L354.36,649l1.37,9.37L332,649.06l-71.54-31L223.63,605.9l-22.79-7.51-17.41,1Zm427.1,156.38L620,722.43l9-22.69,23-35.9,14.75,4.86,22.09-1.64-6.61,24.58-7.66,45.79-7.64,50.25Zm-96.68-74.23L531,679l20.18-4.87,14.56-19.36,3.54-8.49,15.84-3,10.06,3.32,24.8,8.17L605.87,697.7l-25.5,52.54-85.6-33.42,2.16-20.09Zm-121.13-42.9,9.81-4.94,9.38,3.09,6.27,5.78,8.66-12.75,59.77,14.87L521.76,644l-20.92,20.61-15.15,7.64-6.22,9.84-11.08,24.59L377,666.1l-2.48-8.25Z" transform="translate(-167.84 -551.54)"/></svg>