<svg id="Layer_1" data-name="Layer 1" xmlns="http://www.w3.org/2000/svg" viewBox="0 0 399.06 316.23"><path d="M1329.92,565.92l-41.41-15.52-57.41-24-64.94-25.89-7.53-2.82-10.35-8.47,2.35-6.59,6.12-7.06L1177,453.92l.94,16.95-.47,18.35h4.71l13.65-16.94.47-12.66-7.53-10.4v-8l8-14.12.94-11.76L1192,404.51l-16.47-11.29,3.77-22.12,7.53-13.65.47-13.64-2.83-15.53,2.83-8.94,6.11-1.41,4.24-1.89,9.41,8.47,8.47-6.11-1.41-3.3,4.23-.94,1.89-3.29,3.76-1.42.47-6.11,1.41-6.12,5.18-3.29v-6.59l-3.76-9.41-13.65-8.48s-13.18,1.42-14.59,2.36-8,11.76-8,11.76l-16,5.65-10.35-5.65h-16.94l-11.3,5.18-16.94,4.7-9.41,9.89,6.59,9.41L1103.1,323.1l-23.53,42.35V379.1L1082.4,405l16.47,10.36,25.41,10.35-23.06,17.88-22.59,12.24-10.35.47-6.59,6.59L1009.92,444l-36.7-11.76h-9.41l-7.06,6.59V444l17.41,10.83,35.76,22.58L1085.69,513l76.23,32.71,97.89,30.12,50.82,9.88h23.06l16.94-2.35,5.18-2.83ZM1136,475.1l-8.47,11.77-41.88-16.47,9.41-5.89,26.35-10.11,20.24-9.89,11.76-2.35-11.29,24.47Z" transform="translate(-956.75 -269.45)"/></svg>