<svg id="Layer_1" data-name="Layer 1" xmlns="http://www.w3.org/2000/svg" viewBox="0 0 305.65 358.23"><path d="M847.1,489.22v-4.94l-5.65-4.59L828.75,474l-11.3-20.12,4.24-5.64,8.82-.36,8.12,2.12-4.59-6.7-11.29-4.59L809,436.28l-22.23-38.83L744,340.28l-46.59-49.41L659,258.75l-30-14.12,4.59,4.24,15.18,16.94,19.41,25.06,27.18,37.41L689,338.16l-11.29,12.71L655,369.92l-23.14,10.59-7.06,12.71-12,4.94-5.65,13.41L599.34,425h-7.77l-7.76-5.64V405.92h-4.94L574.63,402l-12-3.88-13.41,7.76v12.71l5.29,9.18,2.12,4.59,7.06,4.58,4.59-1.76,8.82,4.23,7.41,8.12-1.06,9.53L576,473.69l3.89,21.53-1.06,25.41-5.3,9.53-3.53,18-10.59,26.12-9.52,8.82-4.24,8.82-4.24,6.36,2.48,2.82,6.35-6.7-3.88,7.05,2.82,1.42,8.12-12-1.77,8.47,1.77,1.76,14.47-27.53,19.41-43.06,1.06-14.11,5.65-15.53-.71-17.3,3.18-4.23,13.05-.71,34.24-.71,14.47-6.7,20.47-4.59,15.53,21.53,13.06-.35,12.35-5.65,42.71-18,3.88-2.47,8.12-.35,10.59,3.17L798,468.4l32.12,37.41,9.18-6.36L831.92,486l6,.71ZM645.22,423.75l-10.59-6.53L630,415.54v-4.32l4.59-3.88,16.24,11.29,1.76,5.12Zm125.29,25.59-6.7,3.17-14.47,4.24L738.75,461h-9.53L714,469.45l-4.59-6.35,5.3-13.41-1.06-15.18L703.1,412.45,689,403.81l-19.41-3.18L656.51,390l10.59-4.23,7.06-7.77L694.28,365,714,355.45l38.12,51.89L777.93,443Z" transform="translate(-541.45 -244.63)"/></svg>