<svg id="Layer_1" data-name="Layer 1" xmlns="http://www.w3.org/2000/svg" viewBox="0 0 766.48 565.69"><path d="M647.28,254.6h2.12L680.46,316l20.24,71.06s9.64,64,10.35,76.71,1.88,81.88,1.88,81.88-3.53,68-5.41,78.12-11.29,65.41-11.29,65.41L680.11,738.6s-7.18,14.59-10,16.71a29.57,29.57,0,0,1-12.71,5.17c-4.47.47-16.23,0-16.23,0s-8.47-1.41-9.89-3.05-15.76-21.89-15.76-21.89L600.7,687.07l-12.24-68.7-2.94-73.53,2.12-83.65L595.75,386s19.06-71.64,20.83-75.53S647.28,254.6,647.28,254.6Z" transform="translate(-585.52 -197)"/><path d="M992.6,197h2.32s25.72,30.59,29,37.55,25.26,71.84,26.19,76.94,10.43,69.76,10.43,69.76L1066.3,458V531.9l-6.72,80L1042.2,709l-16.69,50.52-.69,1.39H957.14l-15.76-48.44-11.59-54.69-6.95-59.33L918.2,486.71l6.73-100.36,16.22-89.92,23.18-65.36S988.43,199.32,992.6,197Z" transform="translate(-585.52 -197)"/><path d="M811.72,247h1.8s18.07,11.42,35.54,38.46,26.51,62.08,26.51,62.08l9,51.28,3.21,64.69-1,76.11-8,82.92-14.86,79.31-15.26,59.29h-7l-11.24-3.81-17.47-18.42-15.86,15.82-10.24,6.41h-9l-16.46-59.08-13.66-84.33L739,528.61l-.8-70.91,4.61-66.29,11.85-57.28s18.07-44.67,23.49-51.88,22.69-27.84,26.31-30.24S811.72,247,811.72,247Z" transform="translate(-585.52 -197)"/><path d="M1148.68,300h4.71s13.17,3.77,19.76,12.24,22.12,37.65,23.06,42.82,11.53,56.24,11.53,56.24l5.41,64.23v98.36l-8.23,88.7-12.71,61.18L1176.68,752l-9.18,8s-8,2.36-10.82,2.59-10.35-.23-13.18-1.88l-12.92-7.53-15.31-32.71-13.41-56-8-95-1.18-96.71,4.94-66.82,13.65-59.3,17.18-33.88s12.23-9.88,15.29-11.06A47,47,0,0,1,1148.68,300Z" transform="translate(-585.52 -197)"/><polygon points="713.71 139.24 715.47 139.24 736.14 174.29 754.71 233.4 764.91 300.37 766.48 350.85 763.87 417.81 747.65 505.44 734.57 545.73 719.13 561.42 715.21 563.51 712.97 563.51 705.79 559.59 694.02 544.15 677.81 503.61 661.85 418.08 660.02 348.35 663.16 289.12 678.33 225.56 697.69 165.4 713.71 139.24"/></svg>