<?xml version="1.0" encoding="utf-8"?>
<!-- Generator: Adobe Illustrator 24.3.0, SVG Export Plug-In . SVG Version: 6.00 Build 0)  -->
<svg version="1.1" id="Layer_1" xmlns="http://www.w3.org/2000/svg" xmlns:xlink="http://www.w3.org/1999/xlink" x="0px" y="0px"
	 viewBox="0 0 1448 1066" style="enable-background:new 0 0 1448 1066;" xml:space="preserve">
<polygon points="1448,1066 1448,157.04 1377.33,106.01 1293.18,49.89 1186.3,12.67 1098.36,0.47 976.07,2.78 910.07,52.49 
	805.45,135.25 721.68,222.24 677.58,331.55 627.86,510.22 672.57,433.21 676.58,523.15 698.77,481.19 734,508.22 764.52,413.01 
	826.88,333.35 877.58,288.54 943.89,254.98 1069.84,201.82 1142.85,217.76 1182.29,289.72 1184.31,397.02 1137.75,498.3 
	1080.73,596.32 991.79,653.39 903.37,738.16 821.02,777.79 696.75,797.45 602.78,771.52 515.99,759.31 442.55,760.69 399.03,799.6 
	319.95,828.78 220,924.15 0,1066 "/>
</svg>
