<svg id="Layer_1" data-name="Layer 1" xmlns="http://www.w3.org/2000/svg" viewBox="0 0 97.53 384.39"><path d="M762.54,324.77c-1.91-19.25-7.37-46-8.61-52.56s-6.22-33.51-19-61c-11.42-24.46-17.08-30.86-18.18-32v-.11l-.09-.09-.06.06-.06-.06-.08.09v.11c-1.1,1.11-6.76,7.51-18.18,32-12.83,27.48-17.81,54.48-19.05,61s-6.7,33.31-8.62,52.56-3,59.74-2.73,71.51,3,51,4,59.74,8.18,46,10,53.71,9.33,29.87,12.92,37.34,8.33,15.57,15.08,16.37H723.2c6.75-.8,11.48-8.9,15.08-16.37s11.05-29.58,12.92-37.34,9-45,10-53.71,3.74-48,4-59.74S764.46,344,762.54,324.77Z" transform="translate(-667.79 -179.05)"/></svg>