<svg id="Layer_1" data-name="Layer 1" xmlns="http://www.w3.org/2000/svg" viewBox="0 0 103.77 420.52"><path d="M94.91,229A177.79,177.79,0,0,0,80.4,182.77a150.93,150.93,0,0,0-12.6-21.48Q64.07,156,59.87,151c-1-1.22-6-5.38-7.14-7.41v-.69a1.16,1.16,0,0,1-.13.45,1.32,1.32,0,0,1-.12-.45v.69c-1.16,2-6.12,6.19-7.14,7.41q-4.2,5-7.93,10.26a150,150,0,0,0-12.6,21.48A177.82,177.82,0,0,0,10.29,229,703.67,703.67,0,0,0,.72,346.59,721.36,721.36,0,0,0,11.19,468.81c4.6,26.62,10.8,53.29,23.07,77.36,3.93,7.72,9.62,15.9,18.11,17.2v.07l.23,0,.23,0v-.07c8.5-1.3,14.19-9.48,18.12-17.2C83.22,522.1,89.42,495.43,94,468.81a721.36,721.36,0,0,0,10.47-122.22A702.62,702.62,0,0,0,94.91,229Z" transform="translate(-0.72 -142.93)"/></svg>