<svg id="Layer_1" data-name="Layer 1" xmlns="http://www.w3.org/2000/svg" viewBox="0 0 138.3 464.56"><path d="M261.11,140a105.73,105.73,0,0,0-9.67-18.16c-8.13-12-20.6-22.52-35.08-23-14.47.46-26.94,11-35.07,23A105,105,0,0,0,171.62,140c-23.07,54.74-24.79,120.79-24.35,179.41A780.45,780.45,0,0,0,171.2,505.67c3.65,14.32,7.76,28.68,14.93,41.6,2.59,4.66,5.69,9.25,10.18,12.14,5.82,3.75,13,4.13,20.05,4,7,.11,14.24-.27,20.06-4,4.49-2.89,7.59-7.48,10.18-12.14,7.17-12.92,11.28-27.28,14.92-41.6a780,780,0,0,0,23.94-186.24C285.9,260.81,284.18,194.76,261.11,140Z" transform="translate(-147.21 -98.88)"/></svg>